<svg width="180" height="180" viewBox="0 0 180 180" fill="none" xmlns="http://www.w3.org/2000/svg">
<mask id="mask0_1_5" style="mask-type:alpha" maskUnits="userSpaceOnUse" x="0" y="0" width="180" height="180">
<path d="M179.947 0.645599C80.921 0.645599 0.645401 80.921 0.645401 179.947H179.947V0.645599Z" fill="#C4C4C4"/>
</mask>
<g mask="url(#mask0_1_5)">
<path fill-rule="evenodd" clip-rule="evenodd" d="M-6.41248 -18.9705C-6.14838 -18.9429 -5.87958 -18.9159 -5.60578 -18.8894C-5.33678 -18.8633 -4.41849 -18.7756 -4.29269 -18.7635C2.83781 -18.0768 7.02462 -17.0827 13.5286 -13.9105C19.9811 -10.7634 22.8048 -8.4361 27.4907 -3.2681C27.9739 -2.735 28.4385 -2.231 28.89 -1.7522L32.801 0.155193C31.447 -1.07311 30.091 -2.4818 28.5263 -4.207C23.731 -9.4958 20.7768 -11.9307 14.1414 -15.167C7.46602 -18.4228 3.12452 -19.4536 -4.15868 -20.1549C-4.28538 -20.1671 -5.20309 -20.2548 -5.47089 -20.2808C-7.30849 -20.459 -8.91199 -20.6565 -10.3921 -20.9114L-6.41248 -18.9705ZM-0.284485 -31.5349C-6.15018 -32.1468 -9.74439 -33.0381 -14.8184 -35.5129L-14.2056 -36.7693C-10.5971 -35.0094 -7.77788 -34.081 -4.26408 -33.4758L-0.284485 -31.5349ZM35.018 -14.3166C39.047 -10.0448 42.037 -7.7827 48.004 -4.8725L48.616 -6.12901C44.318 -8.22551 41.63 -9.9582 38.929 -12.4092L35.018 -14.3166ZM-17.8824 -29.2307C-12.5799 -26.6445 -8.89349 -25.7876 -2.54179 -25.1716C-2.27279 -25.1455 -1.35448 -25.0578 -1.22868 -25.0457C5.90192 -24.359 10.0886 -23.3649 16.5926 -20.1927C23.0451 -17.0456 25.8689 -14.7183 30.555 -9.5503C35.35 -4.2615 38.304 -1.82661 44.94 1.40969L45.552 0.153194C39.1 -2.99391 36.276 -5.3212 31.59 -10.4892C26.795 -15.778 23.8408 -18.2129 17.2054 -21.4492C10.53 -24.7049 6.18851 -25.7358 -1.09469 -26.4371C-1.22139 -26.4493 -2.13908 -26.537 -2.40678 -26.563C-8.60688 -27.1642 -12.1411 -27.9858 -17.2696 -30.4871L-17.8824 -29.2307Z" fill="#FFC267"/>
<path fill-rule="evenodd" clip-rule="evenodd" d="M-12.5401 -6.40701C-12.2759 -6.37941 -12.0071 -6.35241 -11.7334 -6.32591C-11.4644 -6.29981 -10.5461 -6.21211 -10.4203 -6.20001C-3.2897 -5.51331 0.897005 -4.51931 7.401 -1.34701C13.8535 1.80009 16.6773 4.12739 21.3631 9.29539C21.8464 9.82839 22.311 10.3325 22.7625 10.8112L26.6733 12.7187C25.3198 11.4904 23.963 10.0817 22.3987 8.35639C17.6034 3.06769 14.6492 0.632788 8.01381 -2.60351C1.33841 -5.85931 -3.0031 -6.89011 -10.2863 -7.59151C-10.413 -7.60371 -11.3307 -7.69131 -11.5984 -7.71731C-13.4361 -7.89551 -15.0395 -8.09311 -16.5197 -8.34801L-12.5401 -6.40701ZM-6.41199 -18.9714C-12.2778 -19.5834 -15.872 -20.4747 -20.946 -22.9494L-20.3331 -24.2058C-16.7247 -22.4459 -13.9055 -21.5175 -10.3916 -20.9124L-6.41199 -18.9714ZM28.8906 -1.75321C32.919 2.51869 35.909 4.78079 41.876 7.69089L42.489 6.43449C38.19 4.33799 35.502 2.60529 32.801 0.154285L28.8906 -1.75321ZM-24.01 -16.6672C-18.7075 -14.081 -15.0211 -13.2241 -8.6693 -12.6081C-8.4003 -12.582 -7.482 -12.4943 -7.3562 -12.4822C-0.225698 -11.7955 3.961 -10.8014 10.465 -7.62921C16.9176 -4.48211 19.7413 -2.15481 24.4271 3.01319C29.2224 8.30189 32.177 10.7368 38.812 13.9731L39.425 12.7167C32.972 9.56959 30.149 7.24219 25.4627 2.07419C20.6675 -3.21451 17.7132 -5.64941 11.0779 -8.88571C4.40251 -12.1415 0.0609055 -13.1723 -7.22219 -13.8737C-7.34899 -13.8859 -8.2666 -13.9735 -8.5344 -13.9995C-14.7344 -14.6008 -18.2687 -15.4223 -23.3972 -17.9236L-24.01 -16.6672Z" fill="#FFC267"/>
<path fill-rule="evenodd" clip-rule="evenodd" d="M-18.6695 6.16029C-18.4053 6.18779 -18.1365 6.21479 -17.8628 6.24139C-17.5938 6.26749 -16.6754 6.35519 -16.5496 6.36729C-9.41909 7.05399 -5.23239 8.04799 1.27161 11.2202C7.72411 14.3673 10.5479 16.6947 15.2337 21.8627C15.717 22.3957 16.1816 22.8997 16.6331 23.3785L20.5439 25.2859C19.1904 24.0576 17.8336 22.649 16.2693 20.9237C11.474 15.635 8.51981 13.2001 1.88441 9.96379C-4.79099 6.70799 -9.13249 5.67719 -16.4156 4.97579C-16.5424 4.96359 -17.4601 4.87599 -17.7278 4.84999C-19.5655 4.67179 -21.1689 4.47419 -22.6491 4.21929L-18.6695 6.16029ZM-12.5414 -6.40411C-18.4072 -7.01611 -22.0014 -7.90741 -27.0753 -10.3821L-26.4625 -11.6386C-22.8541 -9.87861 -20.0349 -8.95031 -16.521 -8.34511L-12.5414 -6.40411ZM22.7612 10.8141C26.7899 15.0859 29.78 17.3481 35.747 20.2582L36.359 19.0018C32.061 16.9053 29.3729 15.1726 26.672 12.7215L22.7612 10.8141ZM-30.1394 -4.09991C-24.8369 -1.51371 -21.1505 -0.656813 -14.7987 -0.0408134C-14.5297 -0.0147134 -13.6114 0.0729868 -13.4856 0.0850868C-6.35509 0.771787 -2.16839 1.76579 4.33561 4.93799C10.7882 8.08509 13.6119 10.4125 18.2977 15.5805C23.093 20.8692 26.0472 23.3041 32.683 26.5404L33.295 25.284C26.8429 22.1368 24.0192 19.8095 19.3333 14.6415C14.5381 9.35279 11.5838 6.91789 4.94851 3.68159C-1.72689 0.425791 -6.06849 -0.605008 -13.3516 -1.30641C-13.4784 -1.31861 -14.396 -1.40621 -14.6638 -1.43221C-20.8638 -2.03351 -24.3981 -2.85511 -29.5266 -5.35641L-30.1394 -4.09991Z" fill="#FFC267"/>
<path fill-rule="evenodd" clip-rule="evenodd" d="M-24.7971 18.7202C-24.5329 18.7478 -24.2641 18.7748 -23.9903 18.8013C-23.7213 18.8274 -22.803 18.9151 -22.6772 18.9272C-15.5467 19.6139 -11.3599 20.6079 -4.8559 23.7802C1.5966 26.9273 4.42031 29.2546 9.10611 34.423C9.58941 34.956 10.054 35.46 10.5055 35.938L14.4163 37.846C13.0628 36.618 11.706 35.209 10.1417 33.484C5.34651 28.1949 2.3922 25.76 -4.2431 22.5237C-10.9185 19.2679 -15.2601 18.2371 -22.5432 17.5357C-22.67 17.5235 -23.5876 17.4359 -23.8554 17.4099C-25.693 17.2317 -27.2965 17.0341 -28.7767 16.7792L-24.7971 18.7202ZM-18.669 6.1558C-24.5348 5.5438 -28.1289 4.6525 -33.2029 2.1778L-32.5901 0.921402C-28.9817 2.6813 -26.1624 3.6097 -22.6486 4.2148L-18.669 6.1558ZM16.6336 23.374C20.6623 27.6459 23.6524 29.908 29.6191 32.818L30.232 31.562C25.9334 29.4652 23.2454 27.7325 20.5444 25.2815L16.6336 23.374ZM-36.2669 8.46C-30.9645 11.0462 -27.278 11.9031 -20.9263 12.5191C-20.6573 12.5452 -19.739 12.6329 -19.6132 12.645C-12.4826 13.3317 -8.29589 14.3257 -1.79189 17.498C4.66061 20.6451 7.4843 22.9724 12.1702 28.1404C16.9654 33.429 19.9197 35.864 26.555 39.1L27.1679 37.844C20.7153 34.697 17.8916 32.369 13.2058 27.2014C8.41051 21.9127 5.45631 19.4778 -1.17909 16.2415C-7.85449 12.9857 -12.196 11.9549 -19.4792 11.2535C-19.6059 11.2413 -20.5236 11.1537 -20.7914 11.1277C-26.9914 10.5264 -30.5257 9.7049 -35.6541 7.2036L-36.2669 8.46Z" fill="#FFC267"/>
<path fill-rule="evenodd" clip-rule="evenodd" d="M-30.9264 31.287C-30.6622 31.315 -30.3934 31.342 -30.1197 31.368C-29.8507 31.395 -28.9323 31.482 -28.8065 31.494C-21.676 32.181 -17.4893 33.175 -10.9853 36.347C-4.53278 39.494 -1.70899 41.822 2.97681 46.99C3.46011 47.523 3.92471 48.027 4.37621 48.506L8.28702 50.413C6.93352 49.185 5.57671 47.776 4.01241 46.051C-0.782887 40.762 -3.73709 38.327 -10.3725 35.091C-17.0478 31.835 -21.3894 30.804 -28.6725 30.103C-28.7993 30.091 -29.717 30.003 -29.9847 29.9771C-31.8224 29.7988 -33.4258 29.6013 -34.906 29.3464L-30.9264 31.287ZM-24.7983 18.7229C-30.6641 18.111 -34.2583 17.2197 -39.3322 14.7449L-38.7194 13.4885C-35.111 15.2485 -32.2918 16.1768 -28.7779 16.782L-24.7983 18.7229ZM10.5043 35.941C14.533 40.213 17.5231 42.475 23.4897 45.385L24.1026 44.129C19.8041 42.032 17.116 40.3 14.4151 37.849L10.5043 35.941ZM-42.3963 21.0271C-37.0938 23.6133 -33.4074 24.4703 -27.0556 25.0862C-26.7866 25.1123 -25.8683 25.2 -25.7425 25.2122C-18.612 25.8988 -14.4253 26.8929 -7.92119 30.065C-1.46869 33.212 1.35502 35.54 6.04082 40.708C10.8361 45.996 13.7903 48.431 20.4257 51.667L21.0385 50.411C14.586 47.264 11.7623 44.937 7.07642 39.769C2.28122 34.48 -0.673088 32.045 -7.30839 28.8087C-13.9838 25.5529 -18.3254 24.522 -25.6085 23.8207C-25.7353 23.8085 -26.6529 23.7208 -26.9207 23.6949C-33.1207 23.0936 -36.655 22.272 -41.7835 19.7707L-42.3963 21.0271Z" fill="#FFC267"/>
<path fill-rule="evenodd" clip-rule="evenodd" d="M-37.054 43.851C-36.7898 43.879 -36.521 43.905 -36.2472 43.932C-35.9782 43.958 -35.0599 44.046 -34.9341 44.058C-27.8036 44.745 -23.6168 45.739 -17.1128 48.911C-10.6603 52.058 -7.83659 54.385 -3.15079 59.553C-2.66749 60.086 -2.20289 60.59 -1.75139 61.069L2.15941 62.977C0.805912 61.748 -0.550885 60.34 -2.11518 58.614C-6.91038 53.326 -9.86469 50.891 -16.5 47.654C-23.1754 44.399 -27.517 43.368 -34.8001 42.666C-34.9269 42.654 -35.8445 42.567 -36.1123 42.541C-37.9499 42.362 -39.5534 42.165 -41.0336 41.91L-37.054 43.851ZM-30.9259 31.287C-36.7917 30.675 -40.3858 29.7833 -45.4598 27.3085L-44.847 26.0521C-41.2386 27.812 -38.4193 28.7404 -34.9055 29.3456L-30.9259 31.287ZM4.37671 48.505C8.40541 52.777 11.3955 55.039 17.3622 57.949L17.975 56.692C13.6765 54.596 10.9885 52.863 8.28751 50.412L4.37671 48.505ZM-48.5238 33.591C-43.2213 36.177 -39.5349 37.034 -33.1832 37.65C-32.9142 37.676 -31.9959 37.764 -31.8701 37.776C-24.7395 38.462 -20.5528 39.456 -14.0488 42.629C-7.59629 45.776 -4.77259 48.103 -0.086689 53.271C4.70851 58.56 7.66281 60.995 14.2982 64.231L14.911 62.975C8.45841 59.828 5.63471 57.5 0.94891 52.332C-3.84639 47.043 -6.80059 44.609 -13.436 41.372C-20.1114 38.116 -24.4529 37.086 -31.7361 36.384C-31.8628 36.372 -32.7805 36.284 -33.0483 36.258C-39.2483 35.657 -42.7826 34.836 -47.911 32.334L-48.5238 33.591Z" fill="#FFC267"/>
<path fill-rule="evenodd" clip-rule="evenodd" d="M-43.1815 56.415C-42.9173 56.442 -42.6485 56.469 -42.3748 56.496C-42.1058 56.522 -41.1875 56.609 -41.0617 56.622C-33.9311 57.308 -29.7444 58.302 -23.2404 61.474C-16.7879 64.622 -13.9641 66.949 -9.2783 72.117C-8.795 72.65 -8.3305 73.154 -7.8789 73.633L-3.9681 75.54C-5.3217 74.312 -6.6784 72.903 -8.2427 71.178C-13.038 65.889 -15.9922 63.454 -22.6276 60.218C-29.303 56.962 -33.6445 55.931 -40.9277 55.23C-41.0544 55.218 -41.9721 55.13 -42.2399 55.104C-44.0775 54.926 -45.6809 54.728 -47.1611 54.474L-43.1815 56.415ZM-37.0535 43.85C-42.9192 43.238 -46.5134 42.347 -51.5874 39.872L-50.9746 38.616C-47.3661 40.376 -44.5469 41.304 -41.0331 41.909L-37.0535 43.85ZM-1.7509 61.068C2.2779 65.34 5.268 67.602 11.2346 70.512L11.8474 69.256C7.549 67.16 4.8609 65.427 2.1599 62.976L-1.7509 61.068ZM-54.6514 46.154C-49.3489 48.741 -45.6625 49.597 -39.3108 50.213C-39.0418 50.24 -38.1234 50.327 -37.9976 50.339C-30.8671 51.026 -26.6804 52.02 -20.1764 55.192C-13.7238 58.339 -10.9001 60.667 -6.21429 65.835C-1.41899 71.123 1.5352 73.558 8.1706 76.795L8.7834 75.538C2.3309 72.391 -0.492903 70.064 -5.1787 64.896C-9.974 59.607 -12.9282 57.172 -19.5636 53.936C-26.2389 50.68 -30.5805 49.649 -37.8636 48.948C-37.9904 48.936 -38.9081 48.848 -39.1758 48.822C-45.3758 48.221 -48.9101 47.399 -54.0386 44.898L-54.6514 46.154Z" fill="#FFC267"/>
<path fill-rule="evenodd" clip-rule="evenodd" d="M-49.3109 68.982C-49.0467 69.009 -48.7779 69.036 -48.5041 69.063C-48.2351 69.089 -47.3168 69.177 -47.191 69.189C-40.0605 69.875 -35.8737 70.869 -29.3697 74.042C-22.9172 77.189 -20.0935 79.516 -15.4077 84.684C-14.9244 85.217 -14.4598 85.721 -14.0083 86.2L-10.0975 88.107C-11.451 86.879 -12.8078 85.47 -14.3721 83.745C-19.1673 78.456 -22.1216 76.021 -28.7569 72.785C-35.4323 69.529 -39.7739 68.499 -47.057 67.797C-47.1838 67.785 -48.1014 67.697 -48.3692 67.671C-50.2068 67.493 -51.8103 67.296 -53.2905 67.041L-49.3109 68.982ZM-43.1828 56.417C-49.0486 55.805 -52.6427 54.914 -57.7167 52.439L-57.1039 51.183C-53.4955 52.943 -50.6762 53.871 -47.1624 54.476L-43.1828 56.417ZM-7.88019 73.636C-3.85149 77.907 -0.861392 80.169 5.10531 83.08L5.71811 81.823C1.41961 79.727 -1.26839 77.994 -3.96939 75.543L-7.88019 73.636ZM-60.7807 58.721C-55.4782 61.308 -51.7918 62.165 -45.4401 62.781C-45.1711 62.807 -44.2528 62.894 -44.127 62.906C-36.9964 63.593 -32.8097 64.587 -26.3057 67.759C-19.8532 70.907 -17.0294 73.234 -12.3436 78.402C-7.54839 83.691 -4.59409 86.126 2.04131 89.362L2.65411 88.105C-3.79849 84.958 -6.62219 82.631 -11.308 77.463C-16.1033 72.174 -19.0575 69.739 -25.6929 66.503C-32.3683 63.247 -36.7098 62.216 -43.993 61.515C-44.1197 61.503 -45.0374 61.415 -45.3052 61.389C-51.5052 60.788 -55.0394 59.966 -60.1679 57.465L-60.7807 58.721Z" fill="#FFC267"/>
<path fill-rule="evenodd" clip-rule="evenodd" d="M68.662 -13.458C68.926 -13.4305 69.195 -13.4035 69.469 -13.3769C69.738 -13.3508 70.656 -13.2631 70.782 -13.251C77.913 -12.5643 82.099 -11.5703 88.603 -8.3981C95.056 -5.251 97.88 -2.9236 102.565 2.2444C103.049 2.7774 103.513 3.2814 103.965 3.7602L107.876 5.66761C106.522 4.43931 105.165 3.0307 103.601 1.3054C98.806 -3.9833 95.851 -6.4182 89.216 -9.6545C82.541 -12.9103 78.199 -13.9411 70.916 -14.6425C70.789 -14.6547 69.872 -14.7423 69.604 -14.7683C67.766 -14.9465 66.163 -15.1441 64.683 -15.399L68.662 -13.458ZM74.79 -26.0224C68.924 -26.6344 65.33 -27.5257 60.256 -30.0004L60.869 -31.2569C64.478 -29.4969 67.297 -28.5685 70.811 -27.9634L74.79 -26.0224ZM110.093 -8.8042C114.122 -4.5324 117.112 -2.2702 123.078 0.639904L123.691 -0.616497C119.393 -2.713 116.705 -4.4457 114.004 -6.8968L110.093 -8.8042ZM57.192 -23.7182C62.495 -21.132 66.181 -20.2751 72.533 -19.6591C72.802 -19.633 73.72 -19.5453 73.846 -19.5332C80.977 -18.8465 85.163 -17.8525 91.667 -14.6803C98.12 -11.5332 100.944 -9.2058 105.629 -4.0378C110.425 1.2509 113.379 3.6858 120.014 6.9221L120.627 5.66571C114.175 2.51861 111.351 0.191205 106.665 -4.9768C101.87 -10.2655 98.916 -12.7004 92.28 -15.9367C85.605 -19.1925 81.263 -20.2233 73.98 -20.9247C73.853 -20.9369 72.936 -21.0245 72.668 -21.0505C66.468 -21.6518 62.934 -22.4733 57.805 -24.9747L57.192 -23.7182Z" fill="#FFC267"/>
<path fill-rule="evenodd" clip-rule="evenodd" d="M62.533 -0.898102C62.797 -0.870502 63.066 -0.843501 63.34 -0.817001C63.609 -0.790901 64.527 -0.703201 64.653 -0.691101C71.783 -0.00440109 75.97 0.989703 82.474 4.1619C88.926 7.309 91.75 9.6363 96.436 14.8043C96.919 15.3373 97.384 15.8414 97.835 16.3201L101.746 18.2276C100.393 16.9993 99.036 15.5906 97.472 13.8653C92.676 8.5766 89.722 6.1417 83.087 2.9054C76.411 -0.350397 72.07 -1.3812 64.787 -2.0825C64.66 -2.0948 63.742 -2.1824 63.475 -2.2084C61.637 -2.3866 60.033 -2.5841 58.553 -2.8391L62.533 -0.898102ZM68.661 -13.4625C62.795 -14.0744 59.201 -14.9658 54.127 -17.4405L54.74 -18.6969C58.348 -16.937 61.167 -16.0086 64.681 -15.4035L68.661 -13.4625ZM103.963 3.7557C107.992 8.0276 110.982 10.2897 116.949 13.1998L117.562 11.9434C113.263 9.8469 110.575 8.1142 107.874 5.6632L103.963 3.7557ZM51.063 -11.1583C56.365 -8.5721 60.052 -7.7152 66.404 -7.0992C66.673 -7.0731 67.591 -6.9854 67.717 -6.9733C74.847 -6.2866 79.034 -5.2925 85.538 -2.1203C91.991 1.0268 94.814 3.3541 99.5 8.5221C104.295 13.8108 107.25 16.2457 113.885 19.482L114.498 18.2256C108.045 15.0785 105.221 12.7511 100.536 7.5831C95.74 2.2944 92.786 -0.140501 86.151 -3.3768C79.475 -6.6326 75.134 -7.6634 67.851 -8.3647C67.724 -8.377 66.806 -8.4646 66.539 -8.4906C60.339 -9.0918 56.804 -9.9134 51.676 -12.4147L51.063 -11.1583Z" fill="#FFC267"/>
<path fill-rule="evenodd" clip-rule="evenodd" d="M56.411 11.6686C56.675 11.6961 56.944 11.7231 57.218 11.7497C57.487 11.7758 58.405 11.8635 58.531 11.8756C65.661 12.5623 69.848 13.5563 76.352 16.7285C82.805 19.8756 85.628 22.203 90.314 27.371C90.797 27.904 91.262 28.408 91.714 28.8868L95.624 30.794C94.271 29.5659 92.914 28.1573 91.35 26.432C86.555 21.1433 83.6 18.7084 76.965 15.4721C70.29 12.2163 65.948 11.1855 58.665 10.4841C58.538 10.4719 57.62 10.3843 57.353 10.3583C55.515 10.1801 53.912 9.98249 52.431 9.72759L56.411 11.6686ZM62.539 -0.895809C56.673 -1.50781 53.079 -2.39911 48.005 -4.87381L48.618 -6.13031C52.226 -4.37031 55.046 -3.44201 58.559 -2.83681L62.539 -0.895809ZM97.842 16.3224C101.87 20.5942 104.86 22.8564 110.827 25.7665L111.44 24.5101C107.142 22.4136 104.453 20.6809 101.752 18.2298L97.842 16.3224ZM44.941 1.40839C50.244 3.99459 53.93 4.85149 60.282 5.46749C60.551 5.49359 61.469 5.58129 61.595 5.59339C68.725 6.28009 72.912 7.27409 79.416 10.4463C85.869 13.5934 88.692 15.9208 93.378 21.0888C98.174 26.3775 101.128 28.8124 107.763 32.049L108.376 30.792C101.923 27.6451 99.1 25.3178 94.414 20.1498C89.619 14.8611 86.664 12.4262 80.029 9.18989C73.354 5.93409 69.012 4.90329 61.729 4.20189C61.602 4.18969 60.684 4.10209 60.417 4.07609C54.217 3.47479 50.682 2.65319 45.554 0.15189L44.941 1.40839Z" fill="#FFC267"/>
<path fill-rule="evenodd" clip-rule="evenodd" d="M50.281 24.2345C50.545 24.262 50.814 24.289 51.088 24.3156C51.357 24.3417 52.275 24.4294 52.401 24.4415C59.532 25.1282 63.718 26.1222 70.222 29.2944C76.675 32.442 79.499 34.769 84.185 39.937C84.668 40.47 85.132 40.974 85.584 41.453L89.495 43.36C88.141 42.132 86.784 40.723 85.22 38.998C80.425 33.709 77.471 31.274 70.835 28.038C64.16 24.7822 59.818 23.7514 52.535 23.05C52.408 23.0378 51.491 22.9502 51.223 22.9242C49.385 22.746 47.782 22.5484 46.302 22.2935L50.281 24.2345ZM56.409 11.6701C50.544 11.0581 46.949 10.1668 41.875 7.69209L42.488 6.43559C46.097 8.19559 48.916 9.124 52.43 9.7291L56.409 11.6701ZM91.712 28.8883C95.741 33.16 98.731 35.422 104.697 38.332L105.31 37.076C101.012 34.979 98.324 33.247 95.623 30.796L91.712 28.8883ZM38.811 13.9743C44.114 16.5605 47.8 17.4174 54.152 18.0334C54.421 18.0595 55.339 18.1472 55.465 18.1593C62.596 18.846 66.782 19.84 73.286 23.0122C79.739 26.1594 82.563 28.4867 87.249 33.655C92.044 38.943 94.998 41.378 101.633 44.615L102.246 43.358C95.794 40.211 92.97 37.884 88.284 32.716C83.489 27.427 80.535 24.9921 73.899 21.7558C67.224 18.5 62.882 17.4692 55.599 16.7678C55.472 16.7556 54.555 16.668 54.287 16.642C48.087 16.0407 44.553 15.2192 39.424 12.7178L38.811 13.9743Z" fill="#FFC267"/>
<path fill-rule="evenodd" clip-rule="evenodd" d="M44.152 36.798C44.416 36.826 44.685 36.853 44.959 36.879C45.228 36.905 46.146 36.993 46.272 37.005C53.402 37.692 57.589 38.686 64.093 41.858C70.546 45.005 73.369 47.332 78.055 52.5C78.538 53.033 79.003 53.537 79.455 54.016L83.365 55.924C82.012 54.695 80.655 53.287 79.091 51.561C74.295 46.273 71.341 43.838 64.706 40.601C58.031 37.346 53.689 36.315 46.406 35.613C46.279 35.601 45.361 35.514 45.094 35.488C43.256 35.309 41.653 35.112 40.172 34.857L44.152 36.798ZM50.28 24.2336C44.414 23.6216 40.82 22.7303 35.746 20.2556L36.359 18.9991C39.967 20.7591 42.787 21.6874 46.3 22.2926L50.28 24.2336ZM85.583 41.452C89.611 45.724 92.601 47.986 98.568 50.896L99.181 49.639C94.882 47.543 92.194 45.81 89.493 43.359L85.583 41.452ZM32.682 26.5378C37.985 29.124 41.671 29.9809 48.023 30.597C48.292 30.623 49.21 30.711 49.336 30.723C56.466 31.409 60.653 32.404 67.157 35.576C73.61 38.723 76.433 41.05 81.119 46.218C85.914 51.507 88.869 53.942 95.504 57.178L96.117 55.922C89.664 52.775 86.841 50.447 82.155 45.279C77.36 39.99 74.405 37.556 67.77 34.319C61.095 31.063 56.753 30.033 49.47 29.3313C49.343 29.3191 48.425 29.2314 48.158 29.2055C41.958 28.6042 38.423 27.7826 33.295 25.2813L32.682 26.5378Z" fill="#FFC267"/>
<path fill-rule="evenodd" clip-rule="evenodd" d="M38.024 49.362C38.289 49.389 38.557 49.416 38.831 49.443C39.1 49.469 40.018 49.556 40.144 49.569C47.275 50.255 51.462 51.249 57.966 54.422C64.418 57.569 67.242 59.896 71.928 65.064C72.411 65.597 72.875 66.101 73.327 66.58L77.238 68.487C75.884 67.259 74.528 65.85 72.963 64.125C68.168 58.836 65.214 56.401 58.578 53.165C51.903 49.909 47.561 48.878 40.278 48.177C40.152 48.165 39.234 48.077 38.966 48.051C37.128 47.873 35.525 47.676 34.045 47.421L38.024 49.362ZM44.152 36.797C38.287 36.185 34.693 35.294 29.6186 32.819L30.231 31.563C33.84 33.323 36.659 34.251 40.173 34.856L44.152 36.797ZM79.455 54.015C83.484 58.287 86.474 60.549 92.441 63.459L93.053 62.203C88.755 60.107 86.067 58.374 83.366 55.923L79.455 54.015ZM26.5545 39.101C31.857 41.688 35.543 42.544 41.895 43.16C42.164 43.187 43.082 43.274 43.208 43.286C50.339 43.973 54.526 44.967 61.03 48.139C67.482 51.286 70.306 53.614 74.992 58.782C79.787 64.07 82.741 66.505 89.377 69.742L89.989 68.485C83.537 65.338 80.713 63.011 76.027 57.843C71.232 52.554 68.278 50.119 61.642 46.883C54.967 43.627 50.625 42.596 43.342 41.895C43.216 41.883 42.298 41.795 42.03 41.769C35.83 41.168 32.296 40.346 27.1673 37.845L26.5545 39.101Z" fill="#FFC267"/>
<path fill-rule="evenodd" clip-rule="evenodd" d="M31.897 61.925C32.161 61.953 32.43 61.98 32.704 62.006C32.973 62.032 33.891 62.12 34.017 62.132C41.147 62.819 45.334 63.813 51.838 66.985C58.291 70.132 61.114 72.46 65.8 77.628C66.283 78.161 66.748 78.665 67.199 79.143L71.11 81.051C69.757 79.823 68.4 78.414 66.836 76.689C62.04 71.4 59.086 68.965 52.451 65.729C45.775 62.473 41.434 61.442 34.151 60.741C34.024 60.728 33.106 60.641 32.839 60.615C31.001 60.437 29.3975 60.239 27.9173 59.984L31.897 61.925ZM38.025 49.361C32.159 48.749 28.565 47.857 23.4911 45.383L24.1039 44.126C27.7123 45.886 30.532 46.815 34.045 47.42L38.025 49.361ZM73.328 66.579C77.356 70.851 80.346 73.113 86.313 76.023L86.926 74.767C82.627 72.67 79.939 70.937 77.238 68.486L73.328 66.579ZM20.427 51.665C25.7295 54.251 29.4159 55.108 35.768 55.724C36.037 55.75 36.955 55.838 37.081 55.85C44.211 56.537 48.398 57.531 54.902 60.703C61.355 63.85 64.178 66.177 68.864 71.345C73.659 76.634 76.614 79.069 83.249 82.305L83.862 81.049C77.409 77.902 74.586 75.574 69.9 70.406C65.104 65.118 62.15 62.683 55.515 59.446C48.839 56.191 44.498 55.16 37.215 54.458C37.088 54.446 36.17 54.359 35.903 54.333C29.7026 53.731 26.1683 52.91 21.0398 50.409L20.427 51.665Z" fill="#FFC267"/>
<path fill-rule="evenodd" clip-rule="evenodd" d="M25.7675 74.492C26.0317 74.52 26.3005 74.547 26.5742 74.573C26.8432 74.599 27.7616 74.687 27.8874 74.699C35.018 75.386 39.205 76.38 45.709 79.552C52.161 82.699 54.985 85.027 59.671 90.195C60.154 90.728 60.619 91.232 61.07 91.711L64.981 93.618C63.627 92.39 62.271 90.981 60.706 89.256C55.911 83.967 52.957 81.532 46.321 78.296C39.646 75.04 35.305 74.009 28.0214 73.308C27.8946 73.296 26.9769 73.208 26.7092 73.182C24.8716 73.004 23.2681 72.806 21.7879 72.551L25.7675 74.492ZM31.896 61.928C26.0298 61.316 22.4356 60.425 17.3617 57.95L17.9745 56.693C21.5829 58.453 24.4021 59.382 27.916 59.987L31.896 61.928ZM67.198 79.146C71.227 83.418 74.217 85.68 80.184 88.59L80.796 87.334C76.498 85.237 73.81 83.505 71.109 81.054L67.198 79.146ZM14.2976 64.232C19.6001 66.818 23.2865 67.675 29.6383 68.291C29.9073 68.317 30.826 68.405 30.951 68.417C38.082 69.104 42.269 70.098 48.773 73.27C55.225 76.417 58.049 78.745 62.735 83.913C67.53 89.201 70.484 91.636 77.12 94.872L77.732 93.616C71.28 90.469 68.456 88.142 63.77 82.974C58.975 77.685 56.021 75.25 49.385 72.014C42.71 68.758 38.369 67.727 31.085 67.026C30.959 67.013 30.041 66.926 29.7732 66.9C23.5732 66.299 20.0389 65.477 14.9104 62.976L14.2976 64.232Z" fill="#FFC267"/>
<path fill-rule="evenodd" clip-rule="evenodd" d="M19.6399 87.056C19.9041 87.083 20.1729 87.11 20.4467 87.137C20.7157 87.163 21.634 87.251 21.7598 87.263C28.8903 87.95 33.077 88.944 39.581 92.116C46.034 95.263 48.857 97.59 53.543 102.758C54.026 103.291 54.491 103.795 54.943 104.274L58.853 106.182C57.5 104.953 56.143 103.545 54.579 101.819C49.783 96.531 46.829 94.096 40.194 90.859C33.518 87.604 29.1769 86.573 21.8938 85.871C21.767 85.859 20.8494 85.772 20.5816 85.746C18.744 85.567 17.1405 85.37 15.6603 85.115L19.6399 87.056ZM25.768 74.491C19.9023 73.88 16.3081 72.988 11.2341 70.513L11.8469 69.257C15.4554 71.017 18.2746 71.945 21.7884 72.551L25.768 74.491ZM61.071 91.71C65.099 95.982 68.089 98.244 74.056 101.154L74.669 99.897C70.37 97.801 67.682 96.068 64.981 93.617L61.071 91.71ZM8.1701 76.796C13.4726 79.382 17.159 80.239 23.5107 80.855C23.7797 80.881 24.698 80.969 24.8238 80.981C31.954 81.667 36.141 82.661 42.645 85.834C49.098 88.981 51.921 91.308 56.607 96.476C61.402 101.765 64.357 104.2 70.992 107.436L71.605 106.18C65.152 103.032 62.329 100.705 57.643 95.537C52.848 90.248 49.893 87.814 43.258 84.577C36.583 81.321 32.241 80.291 24.9578 79.589C24.8311 79.577 23.9134 79.489 23.6457 79.463C17.4456 78.862 13.9114 78.041 8.78291 75.539L8.1701 76.796Z" fill="#FFC267"/>
<path fill-rule="evenodd" clip-rule="evenodd" d="M13.5124 99.619C13.7766 99.647 14.0454 99.674 14.3191 99.701C14.5881 99.727 15.5064 99.814 15.6322 99.827C22.7628 100.513 26.9495 101.507 33.454 104.679C39.906 107.827 42.73 110.154 47.416 115.322C47.899 115.855 48.363 116.359 48.815 116.838L52.726 118.745C51.372 117.517 50.015 116.108 48.451 114.383C43.656 109.094 40.702 106.659 34.066 103.423C27.3909 100.167 23.0494 99.136 15.7662 98.435C15.6395 98.423 14.7218 98.335 14.4541 98.309C12.6164 98.131 11.013 97.933 9.53281 97.679L13.5124 99.619ZM19.6404 87.055C13.7747 86.443 10.1805 85.552 5.10651 83.077L5.71931 81.821C9.32781 83.581 12.147 84.509 15.6609 85.114L19.6404 87.055ZM54.943 104.273C58.972 108.545 61.962 110.807 67.929 113.717L68.541 112.461C64.243 110.364 61.555 108.632 58.854 106.181L54.943 104.273ZM2.04251 89.359C7.34501 91.945 11.0314 92.802 17.3832 93.418C17.6521 93.444 18.5705 93.532 18.6963 93.544C25.8268 94.231 30.014 95.225 36.518 98.397C42.97 101.544 45.794 103.872 50.48 109.04C55.275 114.328 58.229 116.763 64.864 120L65.477 118.743C59.025 115.596 56.201 113.269 51.515 108.101C46.72 102.812 43.766 100.377 37.13 97.141C30.455 93.885 26.1134 92.854 18.8303 92.153C18.7035 92.141 17.7858 92.053 17.5181 92.027C11.3181 91.426 7.7838 90.604 2.6553 88.103L2.04251 89.359Z" fill="#FFC267"/>
<path fill-rule="evenodd" clip-rule="evenodd" d="M7.38301 112.185C7.64721 112.212 7.916 112.239 8.1898 112.266C8.4588 112.292 9.37711 112.38 9.50291 112.392C16.6334 113.078 20.8202 114.073 27.3242 117.245C33.777 120.392 36.6 122.719 41.286 127.887C41.77 128.42 42.234 128.924 42.686 129.403L46.596 131.31C45.243 130.082 43.886 128.673 42.322 126.948C37.527 121.66 34.572 119.225 27.937 115.988C21.2616 112.733 16.92 111.702 9.63691 111C9.51021 110.988 8.59251 110.9 8.32471 110.875C6.48711 110.696 4.88361 110.499 3.40351 110.244L7.38301 112.185ZM13.5111 99.62C7.64541 99.008 4.05121 98.117 -1.02279 95.642L-0.409996 94.386C3.1985 96.146 6.01771 97.074 9.53151 97.679L13.5111 99.62ZM48.814 116.839C52.842 121.11 55.833 123.373 61.799 126.283L62.412 125.026C58.114 122.93 55.425 121.197 52.725 118.746L48.814 116.839ZM-4.08679 101.925C1.21571 104.511 4.90211 105.368 11.2538 105.984C11.5228 106.01 12.4411 106.098 12.5669 106.11C19.6975 106.796 23.8842 107.79 30.388 110.963C36.841 114.11 39.664 116.437 44.35 121.605C49.146 126.894 52.1 129.329 58.735 132.565L59.348 131.308C52.895 128.161 50.072 125.834 45.386 120.666C40.591 115.377 37.636 112.942 31.001 109.706C24.3256 106.45 19.9841 105.42 12.7009 104.718C12.5742 104.706 11.6565 104.618 11.3888 104.592C5.18871 103.991 1.65451 103.169 -3.47399 100.668L-4.08679 101.925Z" fill="#FFC267"/>
<path fill-rule="evenodd" clip-rule="evenodd" d="M1.25552 124.75C1.51972 124.778 1.78852 124.805 2.06222 124.831C2.33122 124.857 3.24951 124.945 3.37531 124.957C10.5059 125.644 14.6926 126.638 21.1966 129.81C27.6491 132.957 30.473 135.285 35.159 140.453C35.642 140.986 36.107 141.49 36.558 141.968L40.469 143.876C39.115 142.648 37.759 141.239 36.194 139.514C31.399 134.225 28.4448 131.79 21.8094 128.554C15.134 125.298 10.7925 124.267 3.50932 123.566C3.38262 123.554 2.46491 123.466 2.19721 123.44C0.359512 123.262 -1.24388 123.064 -2.72408 122.809L1.25552 124.75ZM7.38361 112.186C1.51781 111.574 -2.07638 110.683 -7.15038 108.208L-6.53759 106.951C-2.92909 108.711 -0.109885 109.64 3.40401 110.245L7.38361 112.186ZM42.686 129.404C46.715 133.676 49.705 135.938 55.672 138.848L56.284 137.592C51.986 135.495 49.298 133.763 46.597 131.311L42.686 129.404ZM-10.2144 114.49C-4.91189 117.076 -1.22549 117.933 5.12631 118.549C5.39521 118.575 6.31361 118.663 6.43941 118.675C13.5699 119.362 17.7566 120.356 24.2606 123.528C30.713 126.675 33.537 129.002 38.223 134.17C43.018 139.459 45.972 141.894 52.608 145.13L53.22 143.874C46.768 140.727 43.944 138.399 39.258 133.231C34.463 127.943 31.509 125.508 24.8734 122.272C18.1981 119.016 13.8565 117.985 6.57342 117.284C6.44662 117.271 5.52892 117.184 5.26122 117.158C-0.938785 116.556 -4.47309 115.735 -9.60159 113.234L-10.2144 114.49Z" fill="#FFC267"/>
<path fill-rule="evenodd" clip-rule="evenodd" d="M-4.8739 137.314C-4.6097 137.341 -4.3409 137.368 -4.0672 137.395C-3.7982 137.421 -2.87989 137.509 -2.75409 137.521C4.37651 138.208 8.5632 139.202 15.0672 142.374C21.5197 145.521 24.3435 147.848 29.0293 153.016C29.5126 153.549 29.9771 154.053 30.429 154.532L34.339 156.439C32.986 155.211 31.629 153.803 30.065 152.077C25.2696 146.789 22.3154 144.354 15.68 141.117C9.0046 137.862 4.6631 136.831 -2.6201 136.129C-2.7468 136.117 -3.66449 136.03 -3.93219 136.004C-5.76989 135.825 -7.3733 135.628 -8.8535 135.373L-4.8739 137.314ZM1.25421 124.749C-4.61159 124.137 -8.2058 123.246 -13.2798 120.771L-12.6669 119.515C-9.0585 121.275 -6.2393 122.203 -2.7254 122.808L1.25421 124.749ZM36.557 141.968C40.585 146.239 43.576 148.502 49.542 151.412L50.155 150.155C45.857 148.059 43.169 146.326 40.468 143.875L36.557 141.968ZM-16.3438 127.054C-11.0413 129.64 -7.35489 130.497 -1.00309 131.113C-0.734194 131.139 0.184201 131.227 0.310001 131.239C7.4405 131.925 11.6272 132.919 18.1312 136.092C24.5838 139.239 27.4075 141.566 32.093 146.734C36.889 152.023 39.843 154.458 46.478 157.694L47.091 156.438C40.638 153.29 37.815 150.963 33.129 145.795C28.3337 140.506 25.3794 138.071 18.744 134.835C12.0687 131.579 7.7271 130.549 0.444004 129.847C0.317204 129.835 -0.600398 129.747 -0.868198 129.721C-7.0682 129.12 -10.6025 128.299 -15.731 125.797L-16.3438 127.054Z" fill="#FFC267"/>
<path fill-rule="evenodd" clip-rule="evenodd" d="M-11.0014 149.877C-10.7372 149.905 -10.4684 149.932 -10.1947 149.958C-9.92568 149.985 -9.00738 150.072 -8.88158 150.084C-1.75098 150.771 2.43571 151.765 8.93971 154.937C15.3922 158.084 18.216 160.412 22.9018 165.58C23.3851 166.113 23.8496 166.617 24.3012 167.096L28.212 169.003C26.8585 167.775 25.5017 166.366 23.9374 164.641C19.1421 159.352 16.1879 156.917 9.55251 153.681C2.87711 150.425 -1.46439 149.394 -8.74759 148.693C-8.87429 148.681 -9.79198 148.593 -10.0597 148.567C-11.8974 148.389 -13.5008 148.191 -14.981 147.936L-11.0014 149.877ZM-4.87328 137.313C-10.7391 136.701 -14.3333 135.81 -19.4073 133.335L-18.7944 132.078C-15.186 133.838 -12.3668 134.767 -8.85289 135.372L-4.87328 137.313ZM30.429 154.531C34.458 158.803 37.448 161.065 43.415 163.975L44.028 162.719C39.729 160.622 37.041 158.89 34.34 156.439L30.429 154.531ZM-22.4713 139.617C-17.1688 142.203 -13.4824 143.06 -7.13058 143.676C-6.86168 143.702 -5.94328 143.79 -5.81748 143.802C1.31302 144.489 5.49972 145.483 12.0037 148.655C18.4563 151.802 21.28 154.13 25.9658 159.298C30.761 164.586 33.715 167.021 40.351 170.257L40.964 169.001C34.511 165.854 31.687 163.527 27.0014 158.359C22.2062 153.07 19.2519 150.635 12.6165 147.399C5.94122 144.143 1.59961 143.112 -5.68349 142.411C-5.81029 142.398 -6.72789 142.311 -6.99569 142.285C-13.1957 141.684 -16.73 140.862 -21.8585 138.361L-22.4713 139.617Z" fill="#FFC267"/>
<path fill-rule="evenodd" clip-rule="evenodd" d="M-17.129 162.443C-16.8648 162.47 -16.596 162.497 -16.3222 162.524C-16.0532 162.55 -15.1349 162.638 -15.0091 162.65C-7.87859 163.336 -3.69189 164.33 2.81211 167.503C9.26471 170.65 12.0884 172.977 16.7742 178.145C17.2575 178.678 17.7221 179.182 18.1736 179.661L22.0844 181.568C20.7309 180.34 19.3741 178.931 17.8098 177.206C13.0146 171.917 10.0603 169.483 3.42501 166.246C-3.25039 162.99 -7.59199 161.96 -14.8751 161.258C-15.0019 161.246 -15.9195 161.158 -16.1873 161.132C-18.0249 160.954 -19.6284 160.757 -21.1086 160.502L-17.129 162.443ZM-11.0009 149.878C-16.8667 149.266 -20.4609 148.375 -25.5348 145.9L-24.922 144.644C-21.3136 146.404 -18.4944 147.332 -14.9805 147.937L-11.0009 149.878ZM24.3017 167.097C28.3304 171.368 31.321 173.631 37.287 176.541L37.9 175.284C33.602 173.188 30.913 171.455 28.2125 169.004L24.3017 167.097ZM-28.5989 152.183C-23.2964 154.769 -19.6099 155.626 -13.2582 156.242C-12.9892 156.268 -12.0709 156.355 -11.9451 156.368C-4.81459 157.054 -0.627795 158.048 5.87621 161.22C12.3287 164.368 15.1524 166.695 19.8383 171.863C24.6335 177.152 27.5878 179.587 34.223 182.823L34.836 181.566C28.3834 178.419 25.5597 176.092 20.8739 170.924C16.0786 165.635 13.1244 163.2 6.48901 159.964C-0.186394 156.708 -4.52789 155.677 -11.8111 154.976C-11.9378 154.964 -12.8555 154.876 -13.1233 154.85C-19.3233 154.249 -22.8576 153.427 -27.986 150.926L-28.5989 152.183Z" fill="#FFC267"/>
<path fill-rule="evenodd" clip-rule="evenodd" d="M-23.2571 175.007C-22.9929 175.035 -22.7241 175.062 -22.4503 175.088C-22.1814 175.114 -21.263 175.202 -21.1372 175.214C-14.0067 175.901 -9.81999 176.895 -3.31599 180.067C3.13661 183.214 5.96031 185.541 10.6461 190.709C11.1294 191.242 11.594 191.746 12.0455 192.225L15.9563 194.133C14.6028 192.904 13.246 191.496 11.6817 189.77C6.88641 184.482 3.93221 182.047 -2.70319 178.81C-9.37849 175.555 -13.7201 174.524 -21.0032 173.822C-21.13 173.81 -22.0477 173.723 -22.3154 173.697C-24.153 173.518 -25.7565 173.321 -27.2367 173.066L-23.2571 175.007ZM-17.129 162.443C-22.9948 161.831 -26.589 160.939 -31.6629 158.465L-31.0501 157.208C-27.4417 158.968 -24.6225 159.896 -21.1086 160.502L-17.129 162.443ZM18.1736 179.661C22.2023 183.933 25.1924 186.195 31.159 189.105L31.772 187.848C27.4734 185.752 24.7853 184.019 22.0844 181.568L18.1736 179.661ZM-34.727 164.747C-29.4245 167.333 -25.7381 168.19 -19.3863 168.806C-19.1173 168.832 -18.199 168.92 -18.0732 168.932C-10.9427 169.618 -6.75589 170.612 -0.251888 173.785C6.20061 176.932 9.02431 179.259 13.7101 184.427C18.5054 189.716 21.4596 192.151 28.095 195.387L28.7078 194.131C22.2553 190.984 19.4316 188.656 14.7457 183.488C9.95051 178.199 6.99631 175.765 0.360912 172.528C-6.31449 169.272 -10.6561 168.242 -17.9392 167.54C-18.066 167.528 -18.9836 167.44 -19.2514 167.414C-25.4514 166.813 -28.9857 165.992 -34.1142 163.49L-34.727 164.747Z" fill="#FFC267"/>
<path fill-rule="evenodd" clip-rule="evenodd" d="M-29.3841 187.57C-29.1199 187.597 -28.8511 187.624 -28.5774 187.651C-28.3084 187.677 -27.39 187.765 -27.2642 187.777C-20.1337 188.464 -15.947 189.458 -9.44299 192.63C-2.99049 195.777 -0.166692 198.104 4.51911 203.272C5.00241 203.805 5.46701 204.309 5.91851 204.788L9.82931 206.696C8.47581 205.467 7.11901 204.059 5.55471 202.333C0.759414 197.045 -2.19479 194.61 -8.83019 191.373C-15.5056 188.118 -19.8471 187.087 -27.1302 186.385C-27.257 186.373 -28.1747 186.286 -28.4424 186.26C-30.2801 186.081 -31.8835 185.884 -33.3637 185.629L-29.3841 187.57ZM-23.256 175.006C-29.1218 174.394 -32.716 173.502 -37.7899 171.028L-37.1771 169.771C-33.5687 171.531 -30.7495 172.459 -27.2356 173.065L-23.256 175.006ZM12.0466 192.224C16.0753 196.496 19.0654 198.758 25.032 201.668L25.6449 200.411C21.3464 198.315 18.6583 196.582 15.9574 194.131L12.0466 192.224ZM-40.854 177.31C-35.5515 179.896 -31.8651 180.753 -25.5133 181.369C-25.2443 181.395 -24.326 181.483 -24.2002 181.495C-17.0697 182.181 -12.883 183.175 -6.37889 186.348C0.0736127 189.495 2.89731 191.822 7.58311 196.99C12.3784 202.279 15.3326 204.714 21.968 207.95L22.5808 206.694C16.1283 203.547 13.3046 201.219 8.61871 196.051C3.82351 190.762 0.869214 188.328 -5.76609 185.091C-12.4415 181.835 -16.7831 180.805 -24.0662 180.103C-24.193 180.091 -25.1106 180.003 -25.3784 179.977C-31.5784 179.376 -35.1127 178.555 -40.2412 176.053L-40.854 177.31Z" fill="#FFC267"/>
<path fill-rule="evenodd" clip-rule="evenodd" d="M143.746 -7.9474C144.01 -7.9198 144.279 -7.8928 144.553 -7.8663C144.822 -7.8402 145.74 -7.7525 145.866 -7.7404C152.996 -7.0537 157.183 -6.0597 163.687 -2.8874C170.14 0.259702 172.963 2.587 177.649 7.755C178.133 8.288 178.597 8.792 179.049 9.2708L182.959 11.1783C181.606 9.95 180.249 8.5413 178.685 6.816C173.89 1.5273 170.935 -0.907598 164.3 -4.1439C157.625 -7.3997 153.283 -8.4305 146 -9.1319C145.873 -9.1441 144.955 -9.2317 144.688 -9.2577C142.85 -9.4359 141.247 -9.6335 139.766 -9.8884L143.746 -7.9474ZM149.874 -20.5118C144.008 -21.1238 140.414 -22.0151 135.34 -24.4898L135.953 -25.7462C139.561 -23.9863 142.381 -23.0579 145.894 -22.4528L149.874 -20.5118ZM185.177 -3.2936C189.205 0.978298 192.196 3.2404 198.162 6.1505L198.775 4.8941C194.477 2.7976 191.788 1.0649 189.087 -1.3861L185.177 -3.2936ZM132.276 -18.2076C137.579 -15.6214 141.265 -14.7645 147.617 -14.1485C147.886 -14.1224 148.804 -14.0347 148.93 -14.0226C156.06 -13.3359 160.247 -12.3419 166.751 -9.1696C173.204 -6.0225 176.027 -3.6952 180.713 1.4728C185.509 6.7615 188.463 9.1964 195.098 12.4327L195.711 11.1763C189.258 8.0292 186.435 5.7018 181.749 0.533798C176.954 -4.7549 173.999 -7.1898 167.364 -10.4261C160.689 -13.6819 156.347 -14.7127 149.064 -15.4141C148.937 -15.4263 148.019 -15.5139 147.752 -15.5399C141.552 -16.1412 138.017 -16.9627 132.889 -19.464L132.276 -18.2076Z" fill="#FFC267"/>
<path fill-rule="evenodd" clip-rule="evenodd" d="M137.613 4.6142C137.877 4.6418 138.146 4.6688 138.42 4.6954C138.689 4.7214 139.607 4.8091 139.733 4.8213C146.863 5.5079 151.05 6.502 157.554 9.6742C164.007 12.8213 166.83 15.1487 171.516 20.3167C171.999 20.8497 172.464 21.3537 172.916 21.8325L176.826 23.7399C175.473 22.5116 174.116 21.1029 172.552 19.3777C167.756 14.089 164.802 11.6541 158.167 8.4178C151.492 5.162 147.15 4.1311 139.867 3.4298C139.74 3.4176 138.822 3.3299 138.555 3.304C136.717 3.1258 135.114 2.9282 133.633 2.6733L137.613 4.6142ZM143.741 -7.9502C137.875 -8.5621 134.281 -9.4534 129.207 -11.9282L129.82 -13.1846C133.428 -11.4246 136.248 -10.4963 139.761 -9.8911L143.741 -7.9502ZM179.044 9.2681C183.072 13.5399 186.062 15.802 192.029 18.7122L192.642 17.4557C188.343 15.3592 185.655 13.6265 182.954 11.1755L179.044 9.2681ZM126.143 -5.646C131.446 -3.0598 135.132 -2.2028 141.484 -1.5868C141.753 -1.5608 142.671 -1.4731 142.797 -1.4609C149.927 -0.774299 154.114 0.219798 160.618 3.392C167.071 6.5391 169.894 8.8665 174.58 14.0345C179.375 19.3232 182.33 21.7581 188.965 24.9944L189.578 23.7379C183.125 20.5908 180.302 18.2635 175.616 13.0955C170.821 7.8068 167.866 5.3719 161.231 2.1356C154.556 -1.1202 150.214 -2.1511 142.931 -2.8524C142.804 -2.8646 141.886 -2.9523 141.619 -2.9782C135.419 -3.5795 131.884 -4.4011 126.756 -6.9024L126.143 -5.646Z" fill="#FFC267"/>
<path fill-rule="evenodd" clip-rule="evenodd" d="M131.487 17.1815C131.751 17.2091 132.02 17.2361 132.294 17.2626C132.563 17.2887 133.481 17.3764 133.607 17.3885C140.738 18.0752 144.924 19.0693 151.428 22.2415C157.881 25.3886 160.705 27.7159 165.39 32.884C165.874 33.417 166.338 33.921 166.79 34.4L170.701 36.307C169.347 35.079 167.99 33.67 166.426 31.945C161.631 26.6562 158.677 24.2213 152.041 20.985C145.366 17.7292 141.024 16.6984 133.741 15.997C133.614 15.9848 132.697 15.8972 132.429 15.8712C130.591 15.693 128.988 15.4954 127.508 15.2405L131.487 17.1815ZM137.615 4.6171C131.75 4.0051 128.155 3.11379 123.081 0.639091L123.694 -0.61731C127.303 1.14259 130.122 2.07099 133.636 2.67609L137.615 4.6171ZM172.918 21.8353C176.947 26.1072 179.937 28.3693 185.903 31.279L186.516 30.023C182.218 27.9265 179.53 26.1938 176.829 23.7428L172.918 21.8353ZM120.017 6.9213C125.32 9.5075 129.006 10.3644 135.358 10.9804C135.627 11.0065 136.545 11.0942 136.671 11.1063C143.802 11.793 147.988 12.7871 154.492 15.9593C160.945 19.1064 163.769 21.4337 168.454 26.6017C173.25 31.89 176.204 34.325 182.839 37.562L183.452 36.305C177 33.158 174.176 30.831 169.49 25.6627C164.695 20.374 161.741 17.9391 155.105 14.7028C148.43 11.447 144.088 10.4162 136.805 9.71479C136.678 9.70259 135.761 9.61499 135.493 9.58899C129.293 8.98769 125.759 8.16619 120.63 5.66489L120.017 6.9213Z" fill="#FFC267"/>
<path fill-rule="evenodd" clip-rule="evenodd" d="M125.36 29.7451C125.624 29.7727 125.893 29.7997 126.166 29.8262C126.435 29.8523 127.354 29.94 127.48 29.9521C134.61 30.639 138.797 31.633 145.301 34.805C151.753 37.952 154.577 40.28 159.263 45.448C159.746 45.981 160.211 46.485 160.662 46.963L164.573 48.871C163.22 47.642 161.863 46.234 160.298 44.509C155.503 39.22 152.549 36.785 145.914 33.549C139.238 30.293 134.897 29.262 127.614 28.5606C127.487 28.5484 126.569 28.4608 126.301 28.4348C124.464 28.2566 122.86 28.059 121.38 27.8041L125.36 29.7451ZM131.488 17.1807C125.622 16.5687 122.028 15.6774 116.954 13.2027L117.567 11.9463C121.175 13.7062 123.994 14.6346 127.508 15.2397L131.488 17.1807ZM166.79 34.399C170.819 38.671 173.809 40.933 179.776 43.843L180.389 42.587C176.09 40.49 173.402 38.757 170.701 36.306L166.79 34.399ZM113.89 19.4849C119.192 22.0711 122.879 22.928 129.23 23.544C129.499 23.5701 130.418 23.6578 130.544 23.6699C137.674 24.3566 141.861 25.3507 148.365 28.5229C154.817 31.67 157.641 33.997 162.327 39.165C167.122 44.454 170.076 46.889 176.712 50.125L177.325 48.869C170.872 45.722 168.048 43.394 163.363 38.226C158.567 32.938 155.613 30.503 148.978 27.2664C142.302 24.0106 137.961 22.9798 130.678 22.2784C130.551 22.2662 129.633 22.1786 129.365 22.1526C123.165 21.5513 119.631 20.7298 114.503 18.2285L113.89 19.4849Z" fill="#FFC267"/>
<path fill-rule="evenodd" clip-rule="evenodd" d="M119.23 42.309C119.495 42.336 119.763 42.363 120.037 42.39C120.306 42.416 121.224 42.503 121.35 42.516C128.481 43.202 132.667 44.196 139.171 47.369C145.624 50.516 148.448 52.843 153.134 58.011C153.617 58.544 154.081 59.048 154.533 59.527L158.444 61.434C157.09 60.206 155.733 58.797 154.169 57.072C149.374 51.783 146.42 49.348 139.784 46.112C133.109 42.856 128.767 41.825 121.484 41.124C121.357 41.112 120.44 41.024 120.172 40.998C118.334 40.82 116.731 40.623 115.251 40.368L119.23 42.309ZM125.358 29.7442C119.493 29.1322 115.898 28.2409 110.824 25.7662L111.437 24.5097C115.046 26.2697 117.865 27.1981 121.379 27.8032L125.358 29.7442ZM160.661 46.962C164.69 51.234 167.68 53.496 173.646 56.407L174.259 55.15C169.961 53.054 167.273 51.321 164.572 48.87L160.661 46.962ZM107.76 32.048C113.063 34.635 116.749 35.491 123.101 36.107C123.37 36.134 124.288 36.221 124.414 36.233C131.545 36.92 135.731 37.914 142.235 41.086C148.688 44.233 151.512 46.561 156.198 51.729C160.993 57.018 163.947 59.452 170.582 62.689L171.195 61.432C164.743 58.285 161.919 55.958 157.233 50.79C152.438 45.501 149.484 43.066 142.848 39.83C136.173 36.574 131.831 35.543 124.548 34.842C124.421 34.83 123.504 34.742 123.236 34.716C117.036 34.115 113.502 33.293 108.373 30.792L107.76 32.048Z" fill="#FFC267"/>
<path fill-rule="evenodd" clip-rule="evenodd" d="M113.101 54.873C113.365 54.901 113.634 54.928 113.907 54.954C114.176 54.98 115.095 55.068 115.221 55.08C122.351 55.767 126.538 56.761 133.042 59.933C139.494 63.08 142.318 65.408 147.004 70.576C147.487 71.109 147.952 71.613 148.403 72.091L152.314 73.999C150.961 72.771 149.604 71.362 148.04 69.637C143.244 64.348 140.29 61.913 133.655 58.677C126.979 55.421 122.638 54.39 115.355 53.689C115.228 53.676 114.31 53.589 114.042 53.563C112.205 53.385 110.601 53.187 109.121 52.932L113.101 54.873ZM119.229 42.309C113.363 41.697 109.769 40.805 104.695 38.331L105.308 37.074C108.916 38.834 111.735 39.763 115.249 40.368L119.229 42.309ZM154.531 59.527C158.56 63.799 161.55 66.061 167.517 68.971L168.13 67.715C163.831 65.618 161.143 63.885 158.442 61.434L154.531 59.527ZM101.631 44.613C106.933 47.199 110.62 48.056 116.971 48.672C117.24 48.698 118.159 48.786 118.285 48.798C125.415 49.485 129.602 50.479 136.106 53.651C142.558 56.798 145.382 59.125 150.068 64.293C154.863 69.582 157.817 72.017 164.453 75.253L165.066 73.997C158.613 70.85 155.789 68.522 151.104 63.354C146.308 58.066 143.354 55.631 136.719 52.394C130.043 49.139 125.702 48.108 118.419 47.406C118.292 47.394 117.374 47.307 117.106 47.281C110.906 46.679 107.372 45.858 102.244 43.357L101.631 44.613Z" fill="#FFC267"/>
<path fill-rule="evenodd" clip-rule="evenodd" d="M106.975 67.439C107.239 67.467 107.508 67.494 107.782 67.521C108.051 67.547 108.969 67.634 109.095 67.646C116.226 68.333 120.412 69.327 126.916 72.499C133.369 75.647 136.193 77.974 140.878 83.142C141.362 83.675 141.826 84.179 142.278 84.658L146.189 86.565C144.835 85.337 143.478 83.928 141.914 82.203C137.119 76.914 134.165 74.479 127.529 71.243C120.854 67.987 116.512 66.956 109.229 66.255C109.102 66.243 108.185 66.155 107.917 66.129C106.079 65.951 104.476 65.753 102.996 65.498L106.975 67.439ZM113.103 54.875C107.238 54.263 103.643 53.372 98.569 50.897L99.182 49.641C102.791 51.401 105.61 52.329 109.124 52.934L113.103 54.875ZM148.406 72.093C152.435 76.365 155.425 78.627 161.391 81.537L162.004 80.281C157.706 78.184 155.018 76.452 152.317 74.001L148.406 72.093ZM95.505 57.179C100.808 59.765 104.494 60.622 110.846 61.238C111.115 61.264 112.033 61.352 112.159 61.364C119.29 62.051 123.476 63.045 129.98 66.217C136.433 69.364 139.257 71.692 143.943 76.86C148.738 82.148 151.692 84.583 158.327 87.82L158.94 86.563C152.488 83.416 149.664 81.089 144.978 75.921C140.183 70.632 137.229 68.197 130.593 64.961C123.918 61.705 119.576 60.674 112.293 59.973C112.166 59.961 111.249 59.873 110.981 59.847C104.781 59.246 101.247 58.424 96.118 55.923L95.505 57.179Z" fill="#FFC267"/>
<path fill-rule="evenodd" clip-rule="evenodd" d="M100.846 80.003C101.11 80.03 101.379 80.057 101.653 80.084C101.922 80.11 102.84 80.198 102.966 80.21C110.096 80.897 114.283 81.891 120.787 85.063C127.24 88.21 130.063 90.537 134.749 95.705C135.232 96.238 135.697 96.742 136.148 97.221L140.059 99.129C138.706 97.9 137.349 96.492 135.785 94.766C130.989 89.478 128.035 87.043 121.4 83.806C114.724 80.551 110.383 79.52 103.1 78.818C102.973 78.806 102.055 78.719 101.788 78.693C99.95 78.514 98.346 78.317 96.866 78.062L100.846 80.003ZM106.974 67.439C101.108 66.827 97.514 65.935 92.44 63.461L93.053 62.204C96.661 63.964 99.48 64.892 102.994 65.498L106.974 67.439ZM142.277 84.657C146.305 88.929 149.295 91.191 155.262 94.101L155.875 92.844C151.576 90.748 148.888 89.015 146.187 86.564L142.277 84.657ZM89.376 69.743C94.678 72.329 98.365 73.186 104.717 73.802C104.986 73.828 105.904 73.916 106.03 73.928C113.16 74.614 117.347 75.608 123.851 78.781C130.304 81.928 133.127 84.255 137.813 89.423C142.608 94.712 145.563 97.147 152.198 100.383L152.811 99.127C146.358 95.979 143.535 93.652 138.849 88.484C134.053 83.195 131.099 80.761 124.464 77.524C117.788 74.268 113.447 73.238 106.164 72.536C106.037 72.524 105.119 72.436 104.852 72.41C98.652 71.809 95.117 70.988 89.989 68.486L89.376 69.743Z" fill="#FFC267"/>
<path fill-rule="evenodd" clip-rule="evenodd" d="M94.718 92.567C94.983 92.594 95.251 92.621 95.525 92.648C95.794 92.674 96.712 92.761 96.838 92.774C103.969 93.46 108.155 94.454 114.659 97.626C121.112 100.774 123.936 103.101 128.622 108.269C129.105 108.802 129.569 109.306 130.021 109.785L133.932 111.692C132.578 110.464 131.221 109.055 129.657 107.33C124.862 102.041 121.908 99.606 115.272 96.37C108.597 93.114 104.255 92.083 96.972 91.382C96.845 91.37 95.928 91.282 95.66 91.256C93.822 91.078 92.219 90.88 90.739 90.626L94.718 92.567ZM100.846 80.002C94.981 79.39 91.386 78.499 86.312 76.024L86.925 74.768C90.534 76.528 93.353 77.456 96.867 78.061L100.846 80.002ZM136.149 97.22C140.178 101.492 143.168 103.754 149.134 106.664L149.747 105.408C145.449 103.312 142.761 101.579 140.06 99.128L136.149 97.22ZM83.248 82.306C88.551 84.893 92.237 85.749 98.589 86.365C98.858 86.392 99.776 86.479 99.902 86.491C107.033 87.178 111.219 88.172 117.723 91.344C124.176 94.491 127 96.819 131.686 101.987C136.481 107.275 139.435 109.71 146.07 112.947L146.683 111.69C140.231 108.543 137.407 106.216 132.721 101.048C127.926 95.759 124.972 93.324 118.336 90.088C111.661 86.832 107.319 85.801 100.036 85.1C99.909 85.088 98.992 85 98.724 84.974C92.524 84.373 88.99 83.551 83.861 81.05L83.248 82.306Z" fill="#FFC267"/>
<path fill-rule="evenodd" clip-rule="evenodd" d="M88.594 105.13C88.858 105.157 89.127 105.184 89.4 105.211C89.669 105.237 90.588 105.325 90.713 105.337C97.844 106.024 102.031 107.018 108.535 110.19C114.987 113.337 117.811 115.664 122.497 120.832C122.98 121.365 123.445 121.869 123.896 122.348L127.807 124.256C126.453 123.027 125.097 121.619 123.532 119.893C118.737 114.605 115.783 112.17 109.148 108.933C102.472 105.678 98.131 104.647 90.847 103.945C90.721 103.933 89.803 103.846 89.535 103.82C87.698 103.641 86.094 103.444 84.614 103.189L88.594 105.13ZM94.722 92.565C88.856 91.954 85.262 91.062 80.188 88.587L80.801 87.331C84.409 89.091 87.228 90.019 90.742 90.624L94.722 92.565ZM130.024 109.784C134.053 114.056 137.043 116.318 143.01 119.228L143.623 117.971C139.324 115.875 136.636 114.142 133.935 111.691L130.024 109.784ZM77.124 94.87C82.426 97.456 86.113 98.313 92.464 98.929C92.733 98.955 93.652 99.043 93.778 99.055C100.908 99.741 105.095 100.735 111.599 103.908C118.051 107.055 120.875 109.382 125.561 114.55C130.356 119.839 133.31 122.274 139.946 125.51L140.559 124.254C134.106 121.106 131.282 118.779 126.596 113.611C121.801 108.322 118.847 105.887 112.212 102.651C105.536 99.395 101.195 98.365 93.912 97.663C93.785 97.651 92.867 97.563 92.599 97.537C86.399 96.936 82.865 96.115 77.737 93.613L77.124 94.87Z" fill="#FFC267"/>
<path fill-rule="evenodd" clip-rule="evenodd" d="M82.461 117.695C82.726 117.723 82.994 117.75 83.268 117.777C83.537 117.803 84.455 117.89 84.581 117.902C91.712 118.589 95.899 119.583 102.403 122.755C108.855 125.902 111.679 128.23 116.365 133.398C116.848 133.931 117.312 134.435 117.764 134.914L121.675 136.821C120.321 135.593 118.965 134.184 117.4 132.459C112.605 127.17 109.651 124.735 103.015 121.499C96.34 118.243 91.998 117.212 84.715 116.511C84.589 116.499 83.671 116.411 83.403 116.385C81.565 116.207 79.962 116.009 78.482 115.754L82.461 117.695ZM88.589 105.131C82.724 104.519 79.13 103.628 74.056 101.153L74.668 99.897C78.277 101.657 81.096 102.585 84.61 103.19L88.589 105.131ZM123.892 122.349C127.921 126.621 130.911 128.883 136.878 131.793L137.49 130.537C133.192 128.44 130.504 126.708 127.803 124.257L123.892 122.349ZM70.992 107.435C76.294 110.021 79.98 110.878 86.332 111.494C86.601 111.52 87.52 111.608 87.645 111.62C94.776 112.307 98.963 113.301 105.467 116.473C111.919 119.62 114.743 121.948 119.429 127.116C124.224 132.404 127.178 134.839 133.814 138.076L134.426 136.819C127.974 133.672 125.15 131.345 120.464 126.177C115.669 120.888 112.715 118.453 106.079 115.217C99.404 111.961 95.062 110.93 87.779 110.229C87.653 110.217 86.735 110.129 86.467 110.103C80.267 109.502 76.733 108.68 71.604 106.179L70.992 107.435Z" fill="#FFC267"/>
<path fill-rule="evenodd" clip-rule="evenodd" d="M76.332 130.266C76.596 130.294 76.865 130.321 77.139 130.347C77.408 130.374 78.326 130.461 78.452 130.473C85.582 131.16 89.769 132.154 96.273 135.326C102.726 138.473 105.549 140.801 110.235 145.969C110.719 146.502 111.183 147.006 111.635 147.485L115.545 149.392C114.192 148.164 112.835 146.755 111.271 145.03C106.476 139.741 103.521 137.306 96.886 134.07C90.211 130.814 85.869 129.783 78.586 129.082C78.459 129.07 77.541 128.982 77.274 128.956C75.436 128.778 73.833 128.58 72.352 128.325L76.332 130.266ZM82.46 117.702C76.594 117.09 73 116.199 67.926 113.724L68.539 112.467C72.147 114.227 74.967 115.156 78.48 115.761L82.46 117.702ZM117.763 134.92C121.791 139.192 124.782 141.454 130.748 144.364L131.361 143.108C127.063 141.011 124.374 139.279 121.673 136.828L117.763 134.92ZM64.862 120.006C70.165 122.592 73.851 123.449 80.203 124.065C80.472 124.091 81.39 124.179 81.516 124.191C88.646 124.878 92.833 125.872 99.337 129.044C105.79 132.191 108.613 134.519 113.299 139.687C118.095 144.975 121.049 147.41 127.684 150.646L128.297 149.39C121.844 146.243 119.021 143.916 114.335 138.748C109.54 133.459 106.585 131.024 99.95 127.788C93.275 124.532 88.933 123.501 81.65 122.8C81.523 122.787 80.605 122.7 80.338 122.674C74.138 122.073 70.603 121.251 65.475 118.75L64.862 120.006Z" fill="#FFC267"/>
<path fill-rule="evenodd" clip-rule="evenodd" d="M70.204 142.826C70.469 142.854 70.737 142.881 71.011 142.907C71.28 142.933 72.199 143.021 72.324 143.033C79.455 143.72 83.642 144.714 90.146 147.886C96.598 151.033 99.422 153.361 104.108 158.529C104.591 159.062 105.056 159.566 105.507 160.045L109.418 161.952C108.064 160.724 106.708 159.315 105.143 157.59C100.348 152.301 97.394 149.866 90.758 146.63C84.083 143.374 79.741 142.343 72.458 141.642C72.332 141.63 71.414 141.542 71.146 141.516C69.309 141.338 67.705 141.14 66.225 140.885L70.204 142.826ZM76.333 130.262C70.467 129.65 66.873 128.759 61.799 126.284L62.411 125.027C66.02 126.787 68.839 127.716 72.353 128.321L76.333 130.262ZM111.635 147.48C115.664 151.752 118.654 154.014 124.621 156.924L125.233 155.668C120.935 153.571 118.247 151.839 115.546 149.388L111.635 147.48ZM58.735 132.566C64.037 135.152 67.723 136.009 74.075 136.625C74.344 136.651 75.263 136.739 75.388 136.751C82.519 137.438 86.706 138.432 93.21 141.604C99.662 144.751 102.486 147.078 107.172 152.246C111.967 157.535 114.921 159.97 121.557 163.206L122.169 161.95C115.717 158.803 112.893 156.476 108.207 151.308C103.412 146.019 100.458 143.584 93.822 140.348C87.147 137.092 82.805 136.061 75.522 135.36C75.396 135.347 74.478 135.26 74.21 135.234C68.01 134.633 64.476 133.811 59.347 131.31L58.735 132.566Z" fill="#FFC267"/>
<path fill-rule="evenodd" clip-rule="evenodd" d="M64.079 155.388C64.343 155.416 64.612 155.443 64.886 155.469C65.155 155.495 66.073 155.583 66.199 155.595C73.329 156.282 77.516 157.276 84.02 160.448C90.472 163.595 93.296 165.922 97.982 171.09C98.465 171.623 98.93 172.127 99.381 172.606L103.292 174.514C101.939 173.285 100.582 171.877 99.018 170.151C94.222 164.863 91.268 162.428 84.633 159.192C77.957 155.936 73.616 154.905 66.333 154.204C66.206 154.191 65.288 154.104 65.02 154.078C63.183 153.9 61.579 153.702 60.099 153.447L64.079 155.388ZM70.207 142.824C64.341 142.212 60.747 141.32 55.673 138.846L56.286 137.589C59.894 139.349 62.713 140.278 66.227 140.883L70.207 142.824ZM105.509 160.042C109.538 164.314 112.528 166.576 118.495 169.486L119.108 168.23C114.809 166.133 112.121 164.4 109.42 161.949L105.509 160.042ZM52.609 145.128C57.911 147.714 61.598 148.571 67.95 149.187C68.219 149.213 69.137 149.301 69.263 149.313C76.393 150 80.58 150.994 87.084 154.166C93.536 157.313 96.36 159.64 101.046 164.808C105.841 170.097 108.796 172.532 115.431 175.768L116.044 174.512C109.591 171.365 106.767 169.037 102.082 163.869C97.286 158.581 94.332 156.146 87.697 152.909C81.021 149.654 76.68 148.623 69.397 147.921C69.27 147.909 68.352 147.822 68.084 147.796C61.884 147.194 58.35 146.373 53.222 143.871L52.609 145.128Z" fill="#FFC267"/>
<path fill-rule="evenodd" clip-rule="evenodd" d="M57.948 167.952C58.212 167.979 58.481 168.006 58.754 168.033C59.023 168.059 59.942 168.146 60.067 168.159C67.198 168.845 71.385 169.839 77.889 173.011C84.341 176.159 87.165 178.486 91.851 183.654C92.334 184.187 92.799 184.691 93.25 185.17L97.161 187.077C95.807 185.849 94.451 184.44 92.886 182.715C88.091 177.426 85.137 174.991 78.501 171.755C71.826 168.499 67.485 167.468 60.201 166.767C60.075 166.755 59.157 166.667 58.889 166.641C57.052 166.463 55.448 166.265 53.968 166.011L57.948 167.952ZM64.076 155.387C58.21 154.775 54.616 153.884 49.542 151.409L50.155 150.153C53.763 151.913 56.582 152.841 60.096 153.446L64.076 155.387ZM99.378 172.605C103.407 176.877 106.397 179.139 112.364 182.049L112.977 180.793C108.678 178.697 105.99 176.964 103.289 174.513L99.378 172.605ZM46.478 157.691C51.78 160.278 55.467 161.134 61.818 161.75C62.087 161.777 63.006 161.864 63.131 161.876C70.262 162.563 74.449 163.557 80.953 166.729C87.405 169.876 90.229 172.204 94.915 177.372C99.71 182.66 102.664 185.095 109.3 188.332L109.912 187.075C103.46 183.928 100.636 181.601 95.95 176.433C91.155 171.144 88.201 168.709 81.566 165.473C74.89 162.217 70.549 161.186 63.265 160.485C63.139 160.473 62.221 160.385 61.953 160.359C55.753 159.758 52.219 158.936 47.09 156.435L46.478 157.691Z" fill="#FFC267"/>
<path fill-rule="evenodd" clip-rule="evenodd" d="M51.82 180.517C52.084 180.545 52.353 180.572 52.627 180.598C52.896 180.624 53.814 180.712 53.94 180.724C61.07 181.411 65.257 182.405 71.761 185.577C78.214 188.724 81.037 191.051 85.723 196.219C86.206 196.752 86.671 197.256 87.123 197.735L91.033 199.643C89.68 198.414 88.323 197.006 86.759 195.28C81.964 189.992 79.009 187.557 72.374 184.32C65.699 181.065 61.357 180.034 54.074 179.332C53.947 179.32 53.029 179.233 52.762 179.207C50.924 179.028 49.321 178.831 47.84 178.576L51.82 180.517ZM57.948 167.953C52.082 167.341 48.488 166.449 43.414 163.975L44.027 162.718C47.635 164.478 50.455 165.406 53.968 166.012L57.948 167.953ZM93.251 185.171C97.279 189.443 100.269 191.705 106.236 194.615L106.849 193.358C102.551 191.262 99.862 189.529 97.161 187.078L93.251 185.171ZM40.35 170.257C45.653 172.843 49.339 173.7 55.691 174.316C55.96 174.342 56.878 174.43 57.004 174.442C64.134 175.128 68.321 176.123 74.825 179.295C81.278 182.442 84.101 184.769 88.787 189.937C93.583 195.226 96.537 197.661 103.172 200.897L103.785 199.641C97.332 196.494 94.509 194.166 89.823 188.998C85.028 183.709 82.073 181.275 75.438 178.038C68.763 174.782 64.421 173.752 57.138 173.05C57.011 173.038 56.093 172.95 55.826 172.924C49.626 172.323 46.091 171.502 40.963 169L40.35 170.257Z" fill="#FFC267"/>
<path fill-rule="evenodd" clip-rule="evenodd" d="M45.691 193.08C45.955 193.108 46.224 193.135 46.497 193.162C46.766 193.188 47.685 193.275 47.811 193.287C54.941 193.974 59.128 194.968 65.632 198.14C72.084 201.287 74.908 203.615 79.594 208.783C80.077 209.316 80.542 209.82 80.993 210.299L84.904 212.206C83.551 210.978 82.194 209.569 80.629 207.844C75.834 202.555 72.88 200.12 66.245 196.884C59.569 193.628 55.228 192.597 47.945 191.896C47.818 191.884 46.9 191.796 46.632 191.77C44.795 191.592 43.191 191.394 41.711 191.139L45.691 193.08ZM51.819 180.516C45.953 179.904 42.359 179.013 37.285 176.538L37.898 175.282C41.506 177.042 44.325 177.97 47.839 178.575L51.819 180.516ZM87.121 197.734C91.15 202.006 94.14 204.268 100.107 207.178L100.72 205.922C96.421 203.825 93.733 202.093 91.032 199.642L87.121 197.734ZM34.221 182.82C39.523 185.406 43.21 186.263 49.561 186.879C49.83 186.905 50.749 186.993 50.875 187.005C58.005 187.692 62.192 188.686 68.696 191.858C75.148 195.005 77.972 197.333 82.658 202.501C87.453 207.789 90.407 210.224 97.043 213.461L97.656 212.204C91.203 209.057 88.379 206.73 83.694 201.562C78.898 196.273 75.944 193.838 69.309 190.602C62.633 187.346 58.292 186.315 51.009 185.614C50.882 185.602 49.964 185.514 49.696 185.488C43.496 184.887 39.962 184.065 34.834 181.564L34.221 182.82Z" fill="#FFC267"/>
<path fill-rule="evenodd" clip-rule="evenodd" d="M188.181 60.386C188.445 60.414 188.714 60.441 188.988 60.468C189.257 60.494 190.175 60.581 190.301 60.593C197.432 61.28 201.618 62.274 208.122 65.446C214.575 68.594 217.399 70.921 222.084 76.089C222.568 76.622 223.032 77.126 223.484 77.605L227.395 79.512C226.041 78.284 224.684 76.875 223.12 75.15C218.325 69.861 215.371 67.426 208.735 64.19C202.06 60.934 197.718 59.903 190.435 59.202C190.308 59.19 189.391 59.102 189.123 59.076C187.285 58.898 185.682 58.7 184.202 58.445L188.181 60.386ZM194.309 47.822C188.444 47.21 184.849 46.319 179.775 43.844L180.388 42.588C183.997 44.348 186.816 45.276 190.33 45.881L194.309 47.822ZM229.612 65.04C233.641 69.312 236.631 71.574 242.597 74.484L243.21 73.228C238.912 71.131 236.224 69.399 233.523 66.948L229.612 65.04ZM176.711 50.126C182.014 52.712 185.7 53.569 192.052 54.185C192.321 54.211 193.239 54.299 193.365 54.311C200.496 54.998 204.682 55.992 211.186 59.164C217.639 62.311 220.463 64.639 225.148 69.807C229.944 75.095 232.898 77.53 239.533 80.767L240.146 79.51C233.694 76.363 230.87 74.036 226.184 68.868C221.389 63.579 218.435 61.144 211.799 57.908C205.124 54.652 200.782 53.621 193.499 52.92C193.372 52.908 192.455 52.82 192.187 52.794C185.987 52.193 182.453 51.371 177.324 48.87L176.711 50.126Z" fill="#FFC267"/>
<path fill-rule="evenodd" clip-rule="evenodd" d="M182.057 72.955C182.321 72.983 182.59 73.01 182.864 73.037C183.133 73.063 184.051 73.15 184.177 73.162C191.308 73.849 195.494 74.843 201.998 78.015C208.451 81.162 211.275 83.49 215.96 88.658C216.444 89.191 216.908 89.695 217.36 90.174L221.271 92.081C219.917 90.853 218.56 89.444 216.996 87.719C212.201 82.43 209.247 79.995 202.611 76.759C195.936 73.503 191.594 72.472 184.311 71.771C184.184 71.759 183.267 71.671 182.999 71.645C181.161 71.467 179.558 71.269 178.078 71.014L182.057 72.955ZM188.185 60.391C182.32 59.779 178.725 58.888 173.651 56.413L174.264 55.157C177.873 56.917 180.692 57.845 184.206 58.45L188.185 60.391ZM223.488 77.609C227.517 81.881 230.507 84.143 236.473 87.053L237.086 85.797C232.788 83.7 230.1 81.968 227.399 79.517L223.488 77.609ZM170.587 62.695C175.89 65.281 179.576 66.138 185.928 66.754C186.197 66.78 187.115 66.868 187.241 66.88C194.372 67.567 198.558 68.561 205.062 71.733C211.515 74.88 214.339 77.208 219.024 82.376C223.82 87.664 226.774 90.099 233.409 93.336L234.022 92.079C227.57 88.932 224.746 86.605 220.06 81.437C215.265 76.148 212.311 73.713 205.675 70.477C199 67.221 194.658 66.19 187.375 65.489C187.248 65.477 186.331 65.389 186.063 65.363C179.863 64.762 176.329 63.94 171.2 61.439L170.587 62.695Z" fill="#FFC267"/>
<path fill-rule="evenodd" clip-rule="evenodd" d="M175.926 85.515C176.19 85.543 176.459 85.57 176.733 85.596C177.002 85.623 177.92 85.71 178.046 85.722C185.176 86.409 189.363 87.403 195.867 90.575C202.32 93.722 205.143 96.05 209.829 101.218C210.313 101.751 210.777 102.255 211.229 102.734L215.139 104.641C213.786 103.413 212.429 102.004 210.865 100.279C206.07 94.99 203.115 92.555 196.48 89.319C189.805 86.063 185.463 85.032 178.18 84.331C178.053 84.319 177.136 84.231 176.868 84.205C175.03 84.027 173.427 83.829 171.946 83.574L175.926 85.515ZM182.054 72.951C176.188 72.339 172.594 71.448 167.52 68.973L168.133 67.717C171.741 69.476 174.561 70.405 178.075 71.01L182.054 72.951ZM217.357 90.169C221.385 94.441 224.376 96.703 230.342 99.613L230.955 98.357C226.657 96.26 223.969 94.528 221.268 92.077L217.357 90.169ZM164.456 75.255C169.759 77.841 173.445 78.698 179.797 79.314C180.066 79.34 180.984 79.428 181.11 79.44C188.24 80.127 192.427 81.121 198.931 84.293C205.384 87.44 208.207 89.768 212.893 94.936C217.689 100.224 220.643 102.659 227.278 105.895L227.891 104.639C221.438 101.492 218.615 99.165 213.929 93.997C209.134 88.708 206.179 86.273 199.544 83.037C192.869 79.781 188.527 78.75 181.244 78.049C181.117 78.037 180.2 77.949 179.932 77.923C173.732 77.322 170.197 76.5 165.069 73.999L164.456 75.255Z" fill="#FFC267"/>
<path fill-rule="evenodd" clip-rule="evenodd" d="M169.797 98.079C170.061 98.107 170.33 98.134 170.603 98.16C170.872 98.186 171.791 98.274 171.917 98.286C179.047 98.973 183.234 99.967 189.738 103.139C196.19 106.286 199.014 108.613 203.7 113.781C204.183 114.314 204.648 114.818 205.099 115.297L209.01 117.205C207.657 115.976 206.3 114.568 204.735 112.842C199.94 107.554 196.986 105.119 190.351 101.882C183.675 98.627 179.334 97.596 172.051 96.895C171.924 96.882 171.006 96.795 170.738 96.769C168.901 96.59 167.297 96.393 165.817 96.138L169.797 98.079ZM175.925 85.515C170.059 84.903 166.465 84.011 161.391 81.537L162.004 80.28C165.612 82.04 168.431 82.968 171.945 83.574L175.925 85.515ZM211.227 102.733C215.256 107.005 218.246 109.267 224.213 112.177L224.826 110.92C220.527 108.824 217.839 107.091 215.138 104.64L211.227 102.733ZM158.327 87.819C163.629 90.405 167.316 91.262 173.667 91.878C173.936 91.904 174.855 91.992 174.981 92.004C182.111 92.69 186.298 93.685 192.802 96.857C199.254 100.004 202.078 102.331 206.764 107.499C211.559 112.788 214.513 115.223 221.149 118.459L221.762 117.203C215.309 114.056 212.485 111.728 207.8 106.56C203.004 101.271 200.05 98.837 193.415 95.6C186.739 92.344 182.398 91.314 175.115 90.612C174.988 90.6 174.07 90.512 173.802 90.486C167.602 89.885 164.068 89.064 158.94 86.562L158.327 87.819Z" fill="#FFC267"/>
<path fill-rule="evenodd" clip-rule="evenodd" d="M163.669 110.643C163.933 110.67 164.202 110.697 164.476 110.724C164.745 110.75 165.663 110.837 165.789 110.85C172.92 111.536 177.106 112.53 183.61 115.703C190.063 118.85 192.886 121.177 197.572 126.345C198.056 126.878 198.52 127.382 198.972 127.861L202.883 129.768C201.529 128.54 200.172 127.131 198.608 125.406C193.813 120.117 190.858 117.682 184.223 114.446C177.548 111.19 173.206 110.159 165.923 109.458C165.796 109.446 164.879 109.358 164.611 109.332C162.773 109.154 161.17 108.957 159.69 108.702L163.669 110.643ZM169.797 98.078C163.931 97.466 160.337 96.575 155.263 94.1L155.876 92.844C159.485 94.604 162.304 95.532 165.818 96.137L169.797 98.078ZM205.1 115.296C209.129 119.568 212.119 121.83 218.085 124.74L218.698 123.484C214.4 121.388 211.712 119.655 209.011 117.204L205.1 115.296ZM152.199 100.382C157.502 102.969 161.188 103.825 167.54 104.441C167.809 104.468 168.727 104.555 168.853 104.567C175.984 105.254 180.17 106.248 186.674 109.42C193.127 112.567 195.951 114.895 200.636 120.063C205.432 125.351 208.386 127.786 215.021 131.023L215.634 129.766C209.182 126.619 206.358 124.292 201.672 119.124C196.877 113.835 193.922 111.4 187.287 108.164C180.612 104.908 176.27 103.877 168.987 103.176C168.86 103.164 167.943 103.076 167.675 103.05C161.475 102.449 157.941 101.627 152.812 99.126L152.199 100.382Z" fill="#FFC267"/>
<path fill-rule="evenodd" clip-rule="evenodd" d="M157.542 123.205C157.806 123.233 158.075 123.26 158.349 123.286C158.618 123.313 159.536 123.4 159.662 123.412C166.792 124.099 170.979 125.093 177.483 128.265C183.936 131.412 186.759 133.74 191.445 138.908C191.928 139.441 192.393 139.945 192.845 140.424L196.755 142.331C195.402 141.103 194.045 139.694 192.481 137.969C187.686 132.68 184.731 130.245 178.096 127.009C171.421 123.753 167.079 122.722 159.796 122.021C159.669 122.009 158.751 121.921 158.484 121.895C156.646 121.717 155.043 121.519 153.562 121.264L157.542 123.205ZM163.67 110.641C157.804 110.029 154.21 109.138 149.136 106.663L149.749 105.406C153.357 107.166 156.177 108.095 159.69 108.7L163.67 110.641ZM198.973 127.859C203.001 132.131 205.991 134.393 211.958 137.303L212.571 136.047C208.272 133.95 205.584 132.218 202.883 129.767L198.973 127.859ZM146.072 112.945C151.375 115.531 155.061 116.388 161.413 117.004C161.682 117.03 162.6 117.118 162.726 117.13C169.856 117.817 174.043 118.811 180.547 121.983C187 125.13 189.823 127.458 194.509 132.626C199.304 137.914 202.259 140.349 208.894 143.585L209.507 142.329C203.054 139.182 200.231 136.855 195.545 131.687C190.75 126.398 187.795 123.963 181.16 120.727C174.485 117.471 170.143 116.44 162.86 115.739C162.733 115.726 161.815 115.639 161.548 115.613C155.348 115.012 151.813 114.19 146.685 111.689L146.072 112.945Z" fill="#FFC267"/>
<path fill-rule="evenodd" clip-rule="evenodd" d="M151.412 135.771C151.676 135.799 151.945 135.826 152.219 135.853C152.488 135.879 153.406 135.966 153.532 135.978C160.663 136.665 164.849 137.659 171.353 140.831C177.806 143.979 180.63 146.306 185.315 151.474C185.799 152.007 186.263 152.511 186.715 152.99L190.626 154.897C189.272 153.669 187.915 152.26 186.351 150.535C181.556 145.246 178.602 142.811 171.966 139.575C165.291 136.319 160.949 135.288 153.666 134.587C153.539 134.575 152.622 134.487 152.354 134.461C150.516 134.283 148.913 134.085 147.433 133.83L151.412 135.771ZM157.54 123.207C151.675 122.595 148.08 121.704 143.006 119.229L143.619 117.973C147.228 119.733 150.047 120.661 153.561 121.266L157.54 123.207ZM192.843 140.425C196.872 144.697 199.862 146.959 205.828 149.869L206.441 148.613C202.143 146.516 199.455 144.784 196.754 142.333L192.843 140.425ZM139.942 125.511C145.245 128.097 148.931 128.954 155.283 129.57C155.552 129.596 156.47 129.684 156.596 129.696C163.727 130.383 167.913 131.377 174.417 134.549C180.87 137.696 183.694 140.024 188.379 145.192C193.175 150.48 196.129 152.915 202.764 156.152L203.377 154.895C196.925 151.748 194.101 149.421 189.415 144.253C184.62 138.964 181.666 136.529 175.03 133.293C168.355 130.037 164.013 129.006 156.73 128.305C156.603 128.293 155.686 128.205 155.418 128.179C149.218 127.578 145.684 126.756 140.555 124.255L139.942 125.511Z" fill="#FFC267"/>
<path fill-rule="evenodd" clip-rule="evenodd" d="M145.286 148.343C145.55 148.371 145.819 148.398 146.093 148.424C146.362 148.45 147.28 148.538 147.406 148.55C154.537 149.237 158.723 150.231 165.227 153.403C171.68 156.55 174.504 158.878 179.189 164.046C179.673 164.579 180.137 165.083 180.589 165.561L184.5 167.469C183.146 166.24 181.789 164.832 180.225 163.107C175.43 157.818 172.475 155.383 165.84 152.147C159.165 148.891 154.823 147.86 147.54 147.159C147.413 147.146 146.496 147.059 146.228 147.033C144.39 146.855 142.787 146.657 141.307 146.402L145.286 148.343ZM151.414 135.779C145.548 135.167 141.954 134.275 136.88 131.801L137.493 130.544C141.102 132.304 143.921 133.233 147.435 133.838L151.414 135.779ZM186.717 152.997C190.746 157.269 193.736 159.531 199.702 162.441L200.315 161.185C196.017 159.088 193.329 157.355 190.628 154.904L186.717 152.997ZM133.816 138.083C139.119 140.669 142.805 141.526 149.157 142.142C149.426 142.168 150.344 142.256 150.47 142.268C157.601 142.955 161.787 143.949 168.291 147.121C174.744 150.268 177.568 152.595 182.253 157.763C187.049 163.052 190.003 165.487 196.638 168.723L197.251 167.467C190.799 164.32 187.975 161.992 183.289 156.824C178.494 151.536 175.539 149.101 168.904 145.864C162.229 142.609 157.887 141.578 150.604 140.876C150.477 140.864 149.56 140.777 149.292 140.751C143.092 140.149 139.558 139.328 134.429 136.826L133.816 138.083Z" fill="#FFC267"/>
<path fill-rule="evenodd" clip-rule="evenodd" d="M139.155 160.9C139.42 160.928 139.688 160.955 139.962 160.981C140.231 161.008 141.149 161.095 141.275 161.107C148.406 161.794 152.592 162.788 159.096 165.96C165.549 169.107 168.373 171.435 173.059 176.603C173.542 177.136 174.006 177.64 174.458 178.119L178.369 180.026C177.015 178.798 175.658 177.389 174.094 175.664C169.299 170.375 166.345 167.94 159.709 164.704C153.034 161.448 148.692 160.417 141.409 159.716C141.282 159.704 140.365 159.616 140.097 159.59C138.259 159.412 136.656 159.214 135.176 158.959L139.155 160.9ZM145.283 148.336C139.418 147.724 135.823 146.833 130.749 144.358L131.362 143.102C134.971 144.861 137.79 145.79 141.304 146.395L145.283 148.336ZM180.586 165.554C184.615 169.826 187.605 172.088 193.571 174.998L194.184 173.742C189.886 171.645 187.198 169.913 184.497 167.462L180.586 165.554ZM127.685 150.64C132.988 153.226 136.674 154.083 143.026 154.699C143.295 154.725 144.213 154.813 144.339 154.825C151.47 155.512 155.656 156.506 162.16 159.678C168.613 162.825 171.437 165.153 176.123 170.321C180.918 175.609 183.872 178.044 190.507 181.281L191.12 180.024C184.668 176.877 181.844 174.55 177.158 169.382C172.363 164.093 169.409 161.658 162.773 158.422C156.098 155.166 151.756 154.135 144.473 153.434C144.346 153.422 143.429 153.334 143.161 153.308C136.961 152.707 133.427 151.885 128.298 149.384L127.685 150.64Z" fill="#FFC267"/>
<path fill-rule="evenodd" clip-rule="evenodd" d="M133.031 173.462C133.296 173.49 133.564 173.517 133.838 173.543C134.107 173.569 135.025 173.657 135.151 173.669C142.282 174.356 146.468 175.35 152.972 178.522C159.425 181.669 162.249 183.997 166.935 189.165C167.418 189.698 167.882 190.202 168.334 190.68L172.245 192.588C170.891 191.36 169.534 189.951 167.97 188.226C163.175 182.937 160.221 180.502 153.585 177.266C146.91 174.01 142.568 172.979 135.285 172.278C135.158 172.265 134.241 172.178 133.973 172.152C132.135 171.974 130.532 171.776 129.052 171.521L133.031 173.462ZM139.159 160.898C133.294 160.286 129.699 159.394 124.626 156.92L125.238 155.663C128.847 157.423 131.666 158.352 135.18 158.957L139.159 160.898ZM174.462 178.116C178.491 182.388 181.481 184.65 187.448 187.56L188.06 186.304C183.762 184.207 181.074 182.474 178.373 180.023L174.462 178.116ZM121.561 163.202C126.864 165.788 130.55 166.645 136.902 167.261C137.171 167.287 138.089 167.375 138.215 167.387C145.346 168.074 149.533 169.068 156.037 172.24C162.489 175.387 165.313 177.714 169.999 182.882C174.794 188.171 177.748 190.606 184.383 193.842L184.996 192.586C178.544 189.439 175.72 187.111 171.034 181.943C166.239 176.655 163.285 174.22 156.649 170.983C149.974 167.728 145.632 166.697 138.349 165.995C138.223 165.983 137.305 165.896 137.037 165.87C130.837 165.268 127.303 164.447 122.174 161.945L121.561 163.202Z" fill="#FFC267"/>
<path fill-rule="evenodd" clip-rule="evenodd" d="M126.898 186.031C127.163 186.059 127.431 186.086 127.705 186.112C127.974 186.138 128.892 186.226 129.018 186.238C136.149 186.925 140.336 187.919 146.84 191.091C153.292 194.238 156.116 196.566 160.802 201.734C161.285 202.267 161.749 202.771 162.201 203.249L166.112 205.157C164.758 203.928 163.402 202.52 161.837 200.795C157.042 195.506 154.088 193.071 147.452 189.835C140.777 186.579 136.435 185.548 129.152 184.847C129.026 184.834 128.108 184.747 127.84 184.721C126.002 184.543 124.399 184.345 122.919 184.09L126.898 186.031ZM133.026 173.467C127.161 172.855 123.567 171.963 118.493 169.489L119.105 168.232C122.714 169.992 125.533 170.921 129.047 171.526L133.026 173.467ZM168.329 190.685C172.358 194.957 175.348 197.219 181.315 200.129L181.927 198.873C177.629 196.776 174.941 195.043 172.24 192.592L168.329 190.685ZM115.429 175.771C120.731 178.357 124.417 179.214 130.769 179.83C131.038 179.856 131.957 179.944 132.082 179.956C139.213 180.643 143.4 181.637 149.904 184.809C156.356 187.956 159.18 190.283 163.866 195.451C168.661 200.74 171.615 203.175 178.251 206.411L178.863 205.155C172.411 202.008 169.587 199.68 164.901 194.512C160.106 189.224 157.152 186.789 150.516 183.552C143.841 180.297 139.499 179.266 132.216 178.564C132.09 178.552 131.172 178.465 130.904 178.439C124.704 177.837 121.17 177.016 116.041 174.514L115.429 175.771Z" fill="#FFC267"/>
</g>
</svg>
